<svg viewBox="0 0 962.11 802.45" xmlns="http://www.w3.org/2000/svg"><g fill="#fff"><g transform="translate(-163.62 -239.78)"><path d="m557.73 310.65v43.89c0 7.26 4.09 10.23 12.27 10.23a42.13 42.13 0 0 0 6.51-.55l1.49 11.9a64.79 64.79 0 0 1 -12.83 1.49c-14.14 0-21.77-7.44-21.77-24.55v-42.41h-12.46v-1.86l12.46-12.09v-13.58l14.33-10.6v25.48h23.06v12.65z"/><path d="m650 376.12v-49.12c0-12.09-5.21-18.23-16.37-18.23-8.74 0-18.6 6.14-24.36 12.65v54.68h-14.7v-136.32h14.7v69.94c8.18-8.37 17.85-13.21 28.08-13.21 18 0 27.35 11 27.35 26.6v53z"/><path d="m754.33 341.52h-57.33c1.67 13.4 9.11 23.44 29.2 23.44 6.51 0 14.32-1.86 21.58-4.28l2.6 12.46c-8.93 2.61-18.23 4.47-25.48 4.47-28.09 0-42.23-17.67-42.23-40.18 0-21.39 13.77-40.92 37.95-40.92 22.13 0 34.22 16.37 34.22 37.57a34.75 34.75 0 0 1 -.51 7.44zm-13-11.16c-.93-12.09-7.82-21.57-21.58-21.57-12.65 0-20.46 8.18-22.14 21.57z"/><path d="m439.9 1002.05a46.18 46.18 0 0 1 -22.69-5.76v44.45h-14.7v-118.3h13.95v7.82c6.33-5.58 15.07-9.3 26.23-9.3 20.64 0 36.83 16.37 36.83 40 0 22.87-16.37 41.09-39.62 41.09zm0-68.82a30.79 30.79 0 0 0 -22.88 9.3v38.47c4.84 5.58 13.39 8.92 22.51 8.92 15.06 0 25.48-12.09 25.48-28.83-.01-15.39-9.67-27.86-25.11-27.86z"/><path d="m513 947.18v53.39h-14.7v-78.13h13.95v13c7.44-9.67 17.67-14.5 27.9-14.5v14.32c-11.35.02-21.76 4.11-27.15 11.92z"/><path d="m589.07 1002.05c-23.81 0-39.62-18.22-39.62-40.54s15.81-40.51 39.62-40.51 39.43 18.23 39.43 40.55-15.62 40.5-39.43 40.5zm0-69.19c-15.07 0-25.07 11.53-25.07 28.65s10 28.64 25.11 28.64c14.88 0 24.92-11.53 24.92-28.64s-10.03-28.65-24.96-28.65z"/><path d="m663.28 1017.68c0 17.11-7.81 24.55-21.95 24.55a66.41 66.41 0 0 1 -12.83-1.49l1.67-12.27a40.43 40.43 0 0 0 6.51.56c8.19 0 11.91-3 11.91-10.24v-96.35h14.69zm-7.28-112.91a9.39 9.39 0 1 1 9.3-9.3 9.32 9.32 0 0 1 -9.3 9.3z"/><path d="m754.23 966h-57.29c1.68 13.39 9.12 23.44 29.21 23.44 6.51 0 14.32-1.86 21.57-4.28l2.61 12.46c-8.93 2.6-18.23 4.46-25.49 4.46-28.08 0-42.22-17.67-42.22-40.17 0-21.39 13.76-40.92 38-40.92 22.13 0 34.22 16.37 34.22 37.57a34.18 34.18 0 0 1 -.61 7.44zm-13-11.16c-.93-12.09-7.81-21.58-21.57-21.58-12.65 0-20.47 8.19-22.14 21.58z"/><path d="m811.52 1002.05c-24.74 0-42.22-17.67-42.22-40.17s17.48-40.88 42.22-40.88a52.12 52.12 0 0 1 26.6 8l-6 11.17c-6.33-3.72-13.95-6.51-21.95-6.51-15.25 0-26.79 10.41-26.79 28.27 0 16.92 13.4 27.53 27.72 27.53 8 0 15.62-2.79 22-6.51l5 11.16a52.12 52.12 0 0 1 -26.58 7.94z"/><path d="m871.78 935.09v43.91c0 7.25 4.09 10.23 12.28 10.23a42.32 42.32 0 0 0 6.51-.56l1.49 11.91a64.83 64.83 0 0 1 -12.84 1.48c-14.13 0-21.76-7.44-21.76-24.55v-42.42h-12.46v-1.86l12.46-12.09v-13.58l14.32-10.56v25.48h23.07v12.65z"/></g><path d="m745.93 123.89 27.28-8.64 22.58 17.58.22-28.61 23.69-16.04-27.14-9.05-7.93-27.49-17 23.02-28.6-.95 16.64 23.27z"/><path d="m210.93 125.12-27.28-8.63-22.57 17.57-.22-28.61-23.7-16.04 27.15-9.05 7.93-27.49 17 23.02 28.6-.95-16.65 23.28z"/><g transform="translate(-163.62 -239.78)"><path d="m1107.3 477.25h-101c-12.91 0-18.44 5.54-18.44 18.44v7.84c0 12.91 5.53 18.44 18.44 18.44h25.81v259.54c0 12.91 5.53 18.44 18.44 18.44h12.45c12.91 0 18.44-5.53 18.44-18.44v-259.51h25.82c12.9 0 18.44-5.53 18.44-18.44v-7.84c.04-12.93-5.5-18.47-18.4-18.47zm-3.7 27.66a20.27 20.27 0 0 1 -2.34 0h-40.26c0 1.33-.13 2.43-.13 3.52q0 60.38.12 120.75.09 72.6.19 145.21a21 21 0 0 1 -.15 3.37 4.22 4.22 0 0 1 -4.66 3.6 4.27 4.27 0 0 1 -4.12-3.93 25 25 0 0 1 -.06-2.6q-.21-132.86-.43-265.7v-4.13h-43.66a20.26 20.26 0 0 1 -2.34-.05 4.42 4.42 0 0 1 -4-4.12 4.31 4.31 0 0 1 3.34-4.64 10 10 0 0 1 2.56-.28q47 0 93.95 0a10.28 10.28 0 0 1 2.82.34 4.41 4.41 0 0 1 3.15 4.55 4.53 4.53 0 0 1 -3.98 4.11z"/><path d="m947.8 477.25h-7.38c-12.91 0-18.44 5.54-18.44 18.44v126.78l.46 53.94-42.87-184.87c-2.31-10.14-7.38-14.29-18-14.29h-24.41c-12.91 0-18.44 5.54-18.44 18.44v285.82c0 12.91 5.53 18.44 18.44 18.44h7.37c12.91 0 18.44-5.53 18.44-18.44v-142l-.46-57.17 47 203.3c2.31 10.14 7.38 14.29 18 14.29h20.29c12.9 0 18.44-5.53 18.44-18.44v-285.8c0-12.9-5.54-18.44-18.44-18.44zm-110.53 24.82a5.29 5.29 0 0 1 5.38-5.26h12.73c3.47 0 6.36 3.05 7.21 5.63 1.68 5.11 2.31 8.68 3.69 13.88l61.23 230.68c2 7.37 4 14.71 5.86 22.11.4 1.62.7 2.8 1.89 2.8h3.63v-2.35c0-.95 0-1.32 0-2.27q0-131.17 0-262.35c0-.95-.06-1.91 0-2.86a4.53 4.53 0 0 1 9.05.08v2.08 270.14 1.3c-.06 3.64-1.59 5.28-5.19 5.35s-7.29.05-10.93 0c-3.84 0-5-1-6-4.76q-5.5-20.73-11-41.47l-56.5-213.05c-1.25-4.69-2.41-9.08-3.67-13.77-.13-.49-.7-2-1.77-2h-5.78c-.61 0-.73.67-.73 1.71s0 1.91 0 2.87v263.9a22.38 22.38 0 0 1 -.11 3.38 4.5 4.5 0 0 1 -9-.49c0-.78 0-1.56 0-2.34"/><path d="m771.7 755.24h-42.88v-97.24h39.65c12.91 0 18.44-5.54 18.44-18.44v-7.84c0-12.91-5.53-18.44-18.44-18.44h-39.65v-91.28h41.95c12.91 0 18.44-5.53 18.44-18.44v-7.84c0-12.9-5.53-18.44-18.44-18.44h-72.83c-12.91 0-18.45 5.54-18.45 18.44v285.79c0 12.91 5.54 18.44 18.45 18.44h73.76c12.9 0 18.43-5.53 18.43-18.44v-7.83c0-12.91-5.53-18.44-18.43-18.44zm-2.79 25.58c-.6 0-1.21 0-1.82 0h-62.46a11.76 11.76 0 0 1 -2.59-.12 4.33 4.33 0 0 1 -3.5-3.74 16.91 16.91 0 0 1 -.12-2.85v-270.38c0-5.5 1.3-6.84 6.69-6.84h61.68a15.06 15.06 0 0 1 2.85.18 4.53 4.53 0 0 1 3.8 4.59 4.58 4.58 0 0 1 -4.44 4.34c-.78 0-1.56 0-2.34 0h-58.66c-.59 2.14-.76 121.19-.22 125 .94 0 2 .13 3 .13q23.29 0 46.58 0a13.37 13.37 0 0 1 3.35.32 4.23 4.23 0 0 1 3.16 4.74 4.31 4.31 0 0 1 -3.82 4 20.48 20.48 0 0 1 -2.6.07h-49.27c-.24.25-.31.31-.36.38s-.14.13-.14.2q-.09 63.63-.16 127.25v3.6h59.09a15.06 15.06 0 0 1 2.85.17 4.49 4.49 0 0 1 -.55 8.91z"/><path d="m638.47 477.25h-9.68c-11.53 0-16.6 4.61-18 16.14l-28.1 223.61-27.2-223.58c-1.39-11.53-6.46-16.14-18-16.14h-12.43c-14.29 0-20.28 6.92-18 21.21l41.94 286.25c1.85 11.06 6.92 15.67 18.44 15.67h28.58c11.07 0 16.6-4.61 18-15.67l42.42-286.28c2.31-14.29-3.68-21.21-17.97-21.21zm-.69 23.39c-.33 3.18-.87 6.35-1.34 9.52q-2.72 18.39-5.45 36.78l-5.49 37q-2.73 18.39-5.45 36.78t-5.5 37q-2.46 16.59-4.91 33.18l-5.43 36.78q-2.75 18.51-5.5 37c-.59 4-1.11 7.9-1.74 11.84s-2.1 5.06-6 5q-8.71-.06-17.43-.21c-3.48-.06-4.9-1.32-5.4-4.68q-5-33.82-10-67.65-4.93-33.3-9.89-66.61-5.19-35-10.39-70-4.56-30.6-9.15-61.2c-.54-3.6-1.11-7.2-1.58-10.81a4.49 4.49 0 0 1 2.9-5 4.27 4.27 0 0 1 5.1 1.47 6.33 6.33 0 0 1 1 2.62c1.28 8.31 2.49 16.63 3.72 24.94q2.73 18.39 5.48 36.78t5.45 36.78q2.7 18.26 5.41 36.52t5.48 36.78q2.78 18.64 5.55 37.29 2.78 18.46 5.46 36.72 1.88 12.74 3.76 25.47a12.22 12.22 0 0 0 .52 1.71h11.34c.38-2.27.79-4.46 1.11-6.66q5.22-35.1 10.42-70.22 5.45-36.78 10.9-73.56 4.28-28.93 8.52-57.88 3.51-23.65 7.06-47.32c.78-5.23 1.52-10.46 2.29-15.69.09-.6.19-1.2.32-1.79.63-2.82 2.67-4.42 5.13-4s4.04 2.39 3.73 5.32z"/><path d="m422.78 505.83c-15.86.47-31.74.1-47.61.1h-3.26v265.07a16.64 16.64 0 0 0 1.9.21c17.43 0 34.87.16 52.3-.09 12.78-.18 21.51-6.74 26.47-18.4 2.45-5.77 3.06-11.88 3.07-18.08q0-36.42.08-72.85c0-40.93-.1-81.87.22-122.8.13-17.1-15.81-33.69-33.17-33.16zm13.77 222.17c0 19.36-8.76 28.58-28.12 28.58h-18v-236h18c19.36 0 28.12 9.22 28.12 28.58z"/><path d="m415.34 477.25h-55.78c-12.91 0-18.44 5.54-18.44 18.44v285.82c0 12.91 5.53 18.44 18.44 18.44h55.78c48 0 70.54-23.05 70.54-70.53v-181.63c0-47.49-22.59-70.54-70.54-70.54zm49.33 257.75c0 7.61-.89 15.08-4.06 22.08-6.59 14.52-17.85 22.53-33.84 23.15-10.13.39-20.29.1-30.44.11-9.45 0-18.91 0-28.36 0-3.6 0-5.23-1.66-5.33-5.23 0-.78 0-1.56 0-2.34v-134.27q0-67.38-.05-134.77c0-4.86 1.54-7 6.89-7 17.95.15 35.91.22 53.86 0 20.6-.23 38.36 16.92 41.12 35.57a45.24 45.24 0 0 1 .49 6.47q-.12 98.14-.28 196.23z"/><path d="m273.31 690.31-5-35.53-4.31-31.41q-2.49-17.76-5-35.53-2.44-17.51-4.88-35-2.51-17.9-5-35.79a82.42 82.42 0 0 0 -1.5-8.42c-.5-2-.87-2.11-3-2.13-2.86 0-6.81 0-9.67 0-4.4 0-4.4.2-5.12 5.34 0 .18 0 .35-.06.52-1.46 10.91-2.9 21.82-4.39 32.73-1.81 13.31-3.69 26.61-5.51 39.92q-3 21.76-5.93 43.54c-2 14.5-4 29-6 43.52q-2.83 20.48-5.64 41c-.35 2.54-.62 5.09-.93 7.7h76c-.07-1.13-.06-2-.18-2.82q-1.94-13.87-3.88-27.64zm-55.31 15.14 20.28-163.2 20.29 163.2z"/><path d="m315.77 778.75-41-285.82c-1.84-11.07-6.91-15.68-18.44-15.68h-33.22c-11.52 0-16.6 4.61-18.44 15.68l-40.57 285.82c-2.3 14.29 3.69 21.2 18 21.2h8.3c11.52 0 16.6-4.61 18-16.13l4.6-34.58h51.17l4.15 34.58c1.38 11.52 6.45 16.13 18.44 16.13h11.06c14.26.05 20.26-6.95 17.95-21.2zm-25.52.21a4.49 4.49 0 0 1 -5.13-4c-.64-4-1.13-8.07-1.69-12.1q-2.15-15.45-4.3-30.91a14.83 14.83 0 0 0 -.51-1.9h-78.62c-.36 2.2-.74 4.29-1 6.39q-2.64 19.07-5.24 38.12c0 .18 0 .35-.06.52a4.55 4.55 0 1 1 -9-1.25c.49-3.87 1.05-7.73 1.59-11.59q2.52-18.29 5.05-36.58 2.46-17.89 4.95-35.8 2.21-16 4.38-31.94 2.24-16.23 4.47-32.46 2.19-16 4.37-31.94l4.41-32.2q2.22-16.23 4.44-32.46c.92-6.79 1.64-12.63 2.59-19.41.58-4.07 2.65-8.48 6.09-10.66a5.86 5.86 0 0 1 3.4-1.32c5.72 0 12-.17 17.71-.07a5.73 5.73 0 0 1 4.08 1.39c2.92 2.32 4.41 7 4.93 10.73q3.23 22.92 6.4 45.84 3.52 25.11 7.08 50.21c2.34 16.74 4.63 33.48 7 50.22s4.73 33.47 7.08 50.21q3 21.36 5.92 42.75 1.66 12 3.38 23.94c0 .35.11.69.14 1 .18 2.8-1.35 4.88-3.91 5.31z"/></g></g></svg>